<svg aria-hidden="true" version="1.0" xmlns="http://www.w3.org/2000/svg"
 viewBox="0 0 512.000000 512.000000"
 preserveAspectRatio="xMidYMid meet">
<g transform="translate(0.000000,512.000000) scale(0.100000,-0.100000)"
fill="currentColor" stroke="none">
<path d="M2505 2628 l-2130 -2133 0 -53 c0 -68 26 -91 100 -92 l50 0 1379
1382 c759 761 1714 1718 2123 2128 l743 746 0 44 c-1 66 -43 110 -107 110 -24
0 -323 -295 -2158 -2132z"/>
<path d="M1364 4111 c-148 -24 -285 -161 -308 -306 -6 -42 -12 -1427 -8 -2022
2 -272 5 -343 15 -343 12 0 77 63 150 148 l37 42 0 1064 c0 1169 -4 1097 61
1171 17 19 39 35 49 35 11 0 22 5 25 10 4 7 376 10 1082 10 l1076 0 90 89 c54
52 87 93 83 100 -8 12 -2275 14 -2352 2z"/>
<path d="M4086 3669 l-86 -90 0 -1123 0 -1124 -32 -48 c-21 -30 -49 -56 -78
-71 l-45 -22 -1112 -1 -1112 0 -93 -89 c-67 -65 -90 -92 -82 -100 8 -8 350
-11 1235 -9 1169 3 1226 4 1264 22 138 64 218 159 251 294 14 59 22 2400 8
2436 -11 29 -31 17 -118 -75z"/>
</g>
</svg>
