<svg aria-hidden="true" version="1.0" xmlns="http://www.w3.org/2000/svg"
 viewBox="0 0 512.000000 512.000000"
 preserveAspectRatio="xMidYMid meet">
<g transform="translate(0.000000,512.000000) scale(0.100000,-0.100000)"
fill="currentColor" stroke="none">
<path d="M3485 4736 c-16 -7 -57 -23 -90 -35 -114 -42 -274 -115 -330 -151
-76 -50 -90 -48 -98 9 -3 22 -15 54 -27 71 -21 30 -26 31 -67 25 -35 -5 -193
-77 -273 -125 -8 -5 -44 -26 -80 -46 -84 -49 -199 -134 -258 -191 -59 -56 -83
-60 -93 -14 -10 47 -41 75 -82 74 -100 -3 -434 -334 -538 -533 -26 -49 -28
-49 -73 -5 -42 41 -91 47 -118 16 -75 -87 -223 -321 -271 -426 -11 -22 -25
-53 -33 -68 -8 -16 -14 -34 -14 -40 0 -7 -7 -25 -15 -40 -8 -15 -19 -42 -24
-60 -36 -118 -43 -127 -81 -99 -51 38 -85 39 -120 4 -16 -17 -30 -38 -30 -47
0 -9 -7 -29 -14 -43 -21 -39 -81 -225 -100 -312 -58 -266 -56 -645 5 -880 15
-59 77 -247 93 -285 61 -140 128 -257 214 -371 17 -23 32 -45 32 -47 0 -3
-103 -108 -228 -233 -359 -360 -399 -416 -339 -472 62 -58 78 -46 522 421 134
141 176 174 187 149 5 -12 197 -122 212 -122 8 0 19 -7 26 -15 7 -8 18 -15 24
-15 6 -1 29 -9 51 -20 22 -11 45 -19 52 -20 6 0 24 -6 40 -14 70 -34 164 -59
403 -103 60 -11 145 -16 291 -16 216 0 226 1 471 60 127 30 124 30 172 -41 86
-129 231 -231 421 -296 92 -31 343 -29 447 4 322 102 527 359 544 683 7 132
-6 210 -61 363 -25 67 -141 296 -166 327 -13 15 2 63 20 63 12 0 187 200 236
270 127 181 128 191 19 239 -60 27 -60 34 -5 104 114 145 291 458 291 515 0 5
7 23 15 38 37 72 1 124 -90 132 -65 5 -65 7 -23 92 39 82 51 110 79 185 12 33
28 75 35 93 8 18 14 40 14 48 0 9 7 37 15 63 49 155 55 237 19 276 -24 26 -29
27 -89 21 -70 -7 -89 9 -65 54 25 46 65 214 85 350 7 52 18 119 24 149 17 86
14 266 -5 285 -19 19 -161 22 -245 5 -30 -6 -88 -17 -129 -24 -98 -18 -189
-39 -270 -64 -36 -10 -83 -24 -105 -31 -22 -6 -57 -18 -77 -27 -52 -22 -64
-14 -71 49 -3 29 -10 65 -16 81 l-11 27 -102 0 c-64 0 -114 -6 -133 -14z m115
-221 c4 -52 11 -79 28 -103 34 -46 67 -44 217 19 150 63 598 169 641 152 17
-6 9 -162 -12 -237 -8 -27 -14 -63 -14 -79 0 -17 -7 -55 -16 -86 -9 -31 -25
-87 -36 -126 -11 -38 -23 -77 -27 -85 -4 -8 -18 -48 -31 -89 l-23 -74 31 -29
c29 -25 40 -28 100 -28 87 0 100 -8 85 -52 -6 -18 -14 -49 -18 -68 -4 -19 -11
-39 -15 -45 -4 -5 -12 -28 -18 -50 -17 -65 -33 -102 -119 -272 -111 -218 -108
-254 22 -278 22 -4 46 -11 53 -17 15 -13 16 -54 2 -63 -6 -4 -17 -21 -25 -38
-8 -18 -24 -45 -35 -62 -11 -16 -24 -39 -30 -50 -23 -46 -155 -239 -179 -263
-50 -50 -121 -152 -121 -175 0 -30 70 -93 110 -99 31 -4 37 -30 13 -55 -11
-10 -43 -49 -73 -88 -29 -38 -71 -88 -91 -109 -45 -47 -49 -45 -116 52 -22 31
-79 110 -126 175 -83 114 -87 121 -85 167 3 56 -20 90 -60 90 -13 0 -40 13
-59 30 -46 41 -57 39 -122 -29 -76 -78 -111 -87 -486 -122 -124 -11 -518 -9
-531 3 -13 14 26 57 305 339 l280 283 108 7 c147 9 294 26 378 44 158 32 271
57 295 66 14 5 43 13 65 18 54 12 141 46 172 66 40 26 29 82 -20 108 l-38 19
-77 -29 c-154 -59 -240 -80 -492 -118 -144 -22 -198 -24 -211 -9 -8 9 79 102
360 386 352 354 371 375 371 410 0 66 -67 92 -123 48 -27 -21 -563 -556 -670
-668 -83 -87 -91 -81 -82 67 3 64 11 143 16 176 21 142 39 235 59 300 43 146
47 182 20 210 -59 62 -106 9 -156 -175 -15 -55 -22 -87 -49 -215 -24 -117 -45
-342 -45 -480 l0 -131 -292 -292 c-160 -161 -295 -292 -300 -292 -18 0 -21 68
-15 344 4 196 11 315 21 366 8 41 19 102 25 135 19 106 39 199 50 228 19 50
14 114 -11 131 -30 21 -71 20 -92 -3 -19 -21 -56 -120 -56 -151 0 -11 -6 -46
-14 -78 -74 -296 -105 -817 -65 -1059 9 -53 8 -65 -7 -90 -25 -40 -576 -593
-591 -593 -7 0 -15 10 -17 22 -40 203 -41 222 -40 543 1 253 5 337 18 400 31
151 32 232 6 260 -31 33 -55 31 -91 -4 -20 -21 -29 -39 -29 -63 0 -18 -7 -66
-14 -108 -21 -105 -46 -413 -46 -545 1 -120 33 -449 49 -505 6 -19 11 -67 11
-106 l0 -70 -140 -143 c-120 -122 -142 -140 -159 -132 -27 15 -81 101 -140
224 -63 132 -65 137 -141 382 -5 17 -14 59 -19 95 -5 36 -15 99 -21 140 -14
86 -8 373 9 460 6 30 15 78 20 105 5 28 17 75 26 105 9 30 22 74 29 97 16 58
19 59 72 29 54 -30 81 -32 110 -8 25 20 54 73 54 99 0 10 14 56 31 103 17 47
34 96 38 110 12 37 72 169 98 215 13 22 27 49 33 60 26 50 87 139 103 149 14
9 24 5 52 -26 76 -80 116 -60 201 99 19 37 61 100 91 138 5 6 17 23 27 40 11
16 58 70 105 119 47 49 101 104 118 122 40 41 57 43 72 7 50 -121 111 -136
193 -47 57 62 196 184 265 232 104 72 272 172 289 172 7 0 15 -15 19 -32 27
-137 94 -164 210 -88 17 11 39 25 50 30 11 6 38 22 60 35 73 43 215 108 295
135 14 5 43 16 65 24 70 27 79 21 85 -59z m-42 -2273 c4 -9 25 -44 47 -76 22
-32 47 -68 55 -81 8 -13 57 -85 108 -159 50 -75 92 -138 92 -141 0 -2 13 -23
29 -47 31 -46 85 -140 100 -173 5 -11 22 -43 39 -71 16 -28 47 -93 67 -145 37
-91 38 -98 39 -229 1 -138 -19 -232 -61 -281 -7 -8 -13 -19 -13 -23 0 -19 -97
-129 -151 -171 -106 -83 -267 -145 -378 -145 -41 0 -186 31 -241 52 -316 118
-475 490 -343 798 35 81 115 231 193 360 5 8 21 35 36 60 29 49 94 149 106
165 31 39 78 106 98 140 14 22 28 45 32 50 32 38 88 120 88 127 0 16 51 8 58
-10z m-296 -47 c-2 -11 -17 -36 -33 -56 -16 -20 -29 -39 -29 -42 0 -3 -38 -62
-84 -130 -46 -69 -107 -165 -135 -213 -29 -49 -57 -96 -62 -104 -5 -8 -14 -27
-20 -41 -17 -45 -72 -59 -309 -79 -287 -25 -910 7 -910 47 0 15 163 185 420
441 l175 173 55 -5 c247 -24 721 -11 850 23 55 15 86 10 82 -14z m-1528 -787
c117 -35 883 -33 1036 4 18 4 26 -37 12 -66 -38 -76 -51 -257 -26 -362 19 -84
18 -86 -47 -107 -293 -90 -657 -90 -969 -1 -137 40 -331 124 -425 184 -16 11
-40 25 -52 31 -39 21 -27 39 126 192 l149 149 83 -7 c45 -4 96 -12 113 -17z"/>
<path d="M3078 1203 c-35 -40 -39 -61 -27 -126 36 -200 146 -333 328 -396 66
-23 96 -21 118 8 30 39 -8 94 -72 104 -121 20 -237 168 -260 332 -11 77 -54
115 -87 78z"/>
</g>
</svg>
