<svg aria-hidden="true" version="1.0" xmlns="http://www.w3.org/2000/svg"
 viewBox="0 0 512.000000 512.000000"
 preserveAspectRatio="xMidYMid meet">
<g transform="translate(0.000000,512.000000) scale(0.100000,-0.100000)"
fill="currentColor" stroke="none">
<path d="M3890 4692 c-47 -32 -107 -74 -135 -93 -27 -20 -77 -54 -110 -76 -33
-23 -118 -84 -190 -137 -71 -52 -159 -115 -195 -141 -195 -137 -252 -178 -365
-260 -69 -49 -163 -117 -210 -150 -47 -33 -134 -95 -193 -137 -59 -43 -154
-111 -212 -153 -58 -41 -153 -110 -212 -153 -59 -42 -155 -111 -213 -152 -119
-85 -314 -225 -455 -328 -52 -39 -139 -99 -192 -136 -80 -53 -193 -136 -410
-298 -9 -7 -26 -20 -38 -28 -113 -78 -195 -150 -205 -179 -5 -18 26 -97 44
-111 4 -3 30 -34 58 -70 133 -168 403 -398 565 -481 108 -56 222 -111 273
-131 33 -14 69 -29 80 -33 44 -18 146 -46 295 -81 419 -97 997 -27 1370 165
246 127 413 246 583 417 75 75 267 311 267 328 0 3 13 24 29 48 51 77 76 123
143 267 23 48 55 130 69 176 5 17 13 39 18 50 9 19 16 45 47 170 89 364 55
921 -77 1230 -4 11 -20 49 -34 85 -106 261 -227 450 -289 450 -12 0 -59 -26
-106 -58z m131 -177 c67 -121 134 -264 174 -375 31 -88 37 -107 45 -140 4 -19
13 -55 19 -80 44 -181 57 -547 26 -734 -52 -307 -89 -418 -222 -666 -129 -242
-307 -458 -503 -615 -41 -33 -77 -62 -80 -65 -43 -48 -445 -260 -493 -260 -5
0 -23 -6 -40 -13 -158 -68 -376 -102 -642 -102 -274 0 -478 35 -685 115 -30
12 -67 25 -81 30 -14 4 -34 12 -45 18 -10 5 -37 18 -59 28 -41 19 -201 111
-220 126 -5 4 -57 42 -115 84 -149 109 -360 330 -360 377 0 14 93 91 124 103
9 3 34 -20 69 -63 99 -124 272 -275 402 -353 22 -13 42 -26 45 -30 15 -16 281
-140 302 -140 8 0 18 -4 24 -9 5 -6 27 -14 49 -20 22 -5 83 -21 135 -34 254
-65 477 -70 745 -16 84 16 138 29 169 39 181 57 162 50 251 89 28 12 58 27 68
32 10 6 37 20 60 31 53 27 223 139 262 173 449 391 687 905 673 1456 -5 181
-16 280 -45 389 -21 82 -75 252 -89 280 -6 14 -23 50 -38 80 -32 68 -72 142
-84 156 -43 50 -36 71 42 126 66 47 83 45 117 -17z m-279 -187 c40 -61 61 -99
82 -148 8 -19 24 -56 35 -82 12 -26 21 -53 21 -60 0 -8 4 -18 8 -23 9 -10 34
-104 66 -245 17 -73 23 -180 12 -198 -9 -14 -1396 -17 -1396 -3 0 4 19 21 43
37 23 16 47 32 52 37 6 4 40 29 77 55 164 115 288 203 402 287 68 50 133 97
145 105 13 8 60 42 106 75 46 33 106 76 134 95 55 37 64 44 126 90 51 38 47
39 87 -22z m226 -920 c11 -15 0 -169 -18 -250 -25 -106 -69 -257 -89 -303 -76
-171 -136 -275 -158 -275 -14 0 -103 54 -140 85 -6 6 -59 44 -117 85 -58 41
-182 131 -275 200 -93 69 -200 145 -236 170 -36 25 -110 77 -163 115 -53 39
-115 82 -137 98 -73 50 -88 64 -81 76 11 17 1400 16 1414 -1z m-1817 -181 c-6
-6 -11 -17 -11 -23 0 -7 -5 -25 -12 -41 -18 -45 -68 -185 -79 -223 -6 -19 -15
-39 -20 -45 -5 -5 -9 -15 -9 -23 0 -8 -6 -28 -14 -45 -7 -18 -30 -79 -51 -137
-20 -58 -40 -112 -45 -120 -4 -9 -11 -31 -15 -50 -4 -19 -11 -39 -15 -45 -4
-5 -19 -46 -33 -90 -32 -97 -79 -229 -96 -270 -7 -16 -19 -45 -27 -63 -8 -18
-14 -39 -14 -48 0 -31 -40 -94 -55 -88 -45 17 -197 101 -269 148 -173 113
-398 335 -381 377 5 14 188 150 335 249 12 8 30 22 40 30 11 8 48 35 85 60 36
25 143 102 238 172 94 70 180 133 189 140 10 7 47 33 83 58 36 25 92 64 123
87 52 38 57 40 60 21 2 -11 -1 -25 -7 -31z m362 19 c29 -19 88 -59 132 -90 44
-31 88 -61 99 -68 10 -7 24 -18 30 -24 16 -15 168 -127 273 -202 98 -70 210
-149 243 -172 12 -8 29 -21 38 -28 9 -7 76 -56 147 -108 72 -53 131 -102 133
-108 5 -20 -92 -140 -170 -209 -61 -55 -104 -89 -234 -184 -41 -31 -266 -141
-294 -145 -26 -3 -68 62 -69 109 -1 12 -7 37 -15 55 -7 18 -21 60 -31 93 -35
122 -48 161 -61 193 -8 18 -14 40 -14 48 0 9 -6 30 -13 47 -8 18 -22 59 -32
92 -9 33 -23 78 -30 100 -7 22 -23 74 -35 115 -12 41 -25 84 -30 95 -5 11 -18
54 -30 95 -43 147 -52 175 -61 195 -14 34 -39 109 -39 123 0 18 5 16 63 -22z
m-193 -24 c0 -10 13 -56 28 -102 16 -47 43 -132 61 -190 18 -58 39 -123 46
-145 7 -22 23 -74 35 -115 12 -41 25 -84 30 -95 5 -11 18 -54 30 -95 12 -41
25 -86 30 -100 5 -14 18 -59 30 -100 12 -41 25 -84 30 -95 14 -34 101 -299
103 -315 3 -19 -36 -37 -113 -50 -36 -7 -85 -16 -110 -20 -57 -11 -369 -11
-435 0 -115 19 -164 29 -214 46 l-53 17 7 36 c4 20 13 50 20 66 7 17 23 59 35
95 12 36 26 74 30 85 4 11 18 49 30 85 12 36 29 79 36 97 8 17 14 37 14 45 0
8 4 18 8 23 5 6 19 42 31 80 12 39 29 84 37 102 8 17 14 36 14 42 0 6 4 19 10
29 12 21 40 98 47 132 3 14 9 30 13 35 4 6 17 44 30 85 12 41 27 86 32 100 6
14 14 39 18 55 9 34 56 160 65 175 10 16 25 11 25 -8z"/>
<path d="M4178 1644 c-52 -27 -47 -70 17 -154 58 -75 87 -132 75 -144 -6 -6
-41 -6 -97 2 -49 6 -153 15 -233 18 -140 6 -146 6 -164 -15 -17 -19 -18 -27
-9 -69 7 -26 21 -92 33 -147 11 -55 25 -116 30 -135 19 -71 50 -208 50 -223 0
-30 -20 -28 -63 6 -23 19 -72 55 -109 80 -37 26 -75 53 -85 61 -38 31 -180
133 -230 164 -72 46 -101 23 -129 -103 -9 -44 -101 -321 -114 -345 -17 -31
-24 -27 -122 87 -170 197 -223 246 -250 232 -33 -17 -357 -339 -374 -372 -16
-29 -13 -38 19 -75 33 -36 59 -28 134 46 38 37 106 103 151 147 l83 80 47 -50
c48 -51 101 -112 206 -240 125 -151 141 -160 168 -98 9 21 49 135 88 253 40
118 78 225 86 238 l15 23 57 -43 c31 -24 84 -61 117 -83 33 -22 62 -42 65 -45
3 -3 32 -23 65 -45 33 -21 85 -58 115 -80 129 -96 220 -155 239 -155 24 0 28
35 12 99 -5 20 -16 70 -24 111 -33 161 -59 276 -68 298 -5 13 -9 31 -9 41 0
10 -6 41 -14 67 -31 107 -35 129 -27 137 6 6 118 5 273 -2 253 -10 338 -6 338
18 0 7 -52 90 -73 116 -4 6 -56 76 -116 156 -113 151 -130 165 -173 143z"/>
</g>
</svg>
